<svg width="27" height="27" viewBox="0 0 27 27" fill="none" xmlns="http://www.w3.org/2000/svg">
<path d="M4.34501 5.43131V20.639H21.7252V5.43131H4.34501ZM3.25875 3.25879H22.8115C23.0996 3.25879 23.3759 3.37323 23.5796 3.57695C23.7833 3.78066 23.8977 4.05696 23.8977 4.34505V21.7252C23.8977 22.0133 23.7833 22.2896 23.5796 22.4933C23.3759 22.6971 23.0996 22.8115 22.8115 22.8115H3.25875C2.97065 22.8115 2.69436 22.6971 2.49064 22.4933C2.28693 22.2896 2.17249 22.0133 2.17249 21.7252V4.34505C2.17249 4.05696 2.28693 3.78066 2.49064 3.57695C2.69436 3.37323 2.97065 3.25879 3.25875 3.25879ZM16.2939 7.60384L20.0958 10.8626L16.2939 14.1214V11.9489H11.9488V9.77636H16.2939V7.60384ZM9.77632 18.4665L5.9744 15.2077L9.77632 11.9489V14.1214H14.1214V16.2939H9.77632V18.4665Z" fill="white"/>
</svg>
