<svg width="86" height="87" viewBox="0 0 86 87" fill="none" xmlns="http://www.w3.org/2000/svg">
<path d="M83.7413 54.0229C78.0636 77.3267 54.9971 91.5089 32.2202 85.6977C9.45287 79.8879 -4.40704 56.2835 1.27315 32.9816C6.94836 9.67523 30.0149 -4.50807 52.7847 1.30167C75.5599 7.11141 89.419 30.7184 83.7407 54.0233L83.7411 54.0229H83.7413Z" fill="#F7931A"/>
<path d="M61.252 37.3023C62.0982 31.5134 57.7911 28.4017 51.9014 26.3258L53.8121 18.4843L49.1471 17.2948L47.2872 24.93C46.0608 24.617 44.8014 24.3221 43.5496 24.0297L45.4231 16.3442L40.7611 15.1548L38.8494 22.9938C37.8345 22.7574 36.8378 22.5237 35.8707 22.2775L35.8761 22.2528L29.4431 20.609L28.2022 25.7073C28.2022 25.7073 31.6631 26.5191 31.5902 26.5691C33.4792 27.0515 33.8208 28.3311 33.7641 29.3453L31.5877 38.2787C31.7178 38.3125 31.8865 38.3614 32.0727 38.438C31.9171 38.3984 31.7514 38.3553 31.5796 38.3132L28.529 50.8276C28.2982 51.4148 27.7122 52.2962 26.3915 51.9615C26.4382 52.0308 23.0009 51.0957 23.0009 51.0957L20.6849 56.5597L26.7555 58.1082C27.8849 58.398 28.9916 58.7012 30.0814 58.9864L28.151 66.9179L32.8106 68.1073L34.7222 60.26C35.9952 60.6136 37.2305 60.9398 38.4398 61.2472L36.5346 69.0575L41.1997 70.2469L43.1299 62.3303C51.0846 63.8708 57.0659 63.2497 59.5835 55.8874C61.6121 49.9599 59.4825 46.5409 55.2976 44.3113C58.3457 43.592 60.6415 41.5406 61.2537 37.303L61.2522 37.3019L61.252 37.3023ZM50.5938 52.5955C49.1521 58.5231 39.3988 55.3188 36.2366 54.5153L38.7983 44.0074C41.9602 44.8152 52.1005 46.4137 50.594 52.5955H50.5938ZM52.0365 37.2164C50.7214 42.6082 42.6036 39.8689 39.9702 39.1972L42.2927 29.6672C44.9261 30.3389 53.4065 31.5925 52.0369 37.2164H52.0365Z" fill="white"/>
</svg>
