<svg width="27" height="25" viewBox="0 0 27 25" fill="none" xmlns="http://www.w3.org/2000/svg">
<path d="M11.2136 17.0162C11.2136 17.2578 11.2035 17.4892 11.1833 17.7114C11.148 17.7237 11.1117 17.7369 11.0753 17.7512C11.041 17.7645 11.0067 17.7808 10.9744 17.8001C10.936 17.7828 10.8967 17.7696 10.8563 17.7594C10.7574 17.7125 10.6342 17.6809 10.4828 17.6809C10.3808 17.6809 10.2537 17.6941 10.0821 17.7227C10.0447 17.7288 10.0084 17.7369 9.97304 17.7492C9.96597 17.7502 9.95789 17.7512 9.94982 17.7522C9.93468 17.7543 9.91853 17.7563 9.90339 17.7594C9.74188 17.7685 9.58441 17.8338 9.46025 17.949C9.1433 18.2467 9.08374 18.5474 9.09888 18.7666C9.06052 19.0062 9.03933 19.1826 9.0363 19.3222C8.99491 19.4517 8.95151 19.6342 8.89902 19.9074C8.88489 19.9034 8.87075 19.9003 8.85763 19.8972C8.75366 19.8422 8.6396 19.8136 8.52452 19.8136C8.43771 19.8136 8.3509 19.8299 8.26813 19.8626L8.15104 19.9084C8.14296 19.9115 8.1359 19.9146 8.12782 19.9176C8.12378 19.9197 8.11975 19.9207 8.1147 19.9227H8.10965C7.98953 19.9227 7.87042 19.9533 7.76342 20.0145L7.66248 20.0716L7.55044 20.0981C7.37177 20.1409 7.21733 20.251 7.11942 20.4039L7.10932 20.4121C7.08106 20.4355 7.05582 20.461 7.0316 20.4875C7.00535 20.4304 6.97002 20.3774 6.92964 20.3285L6.82568 20.2072C6.76612 20.1368 6.69344 20.0787 6.61168 20.0369C6.3785 19.9156 6.13019 19.8544 5.87379 19.8544C5.7567 19.8544 5.63658 19.8677 5.51848 19.8942C5.44782 19.9095 5.3812 19.935 5.31862 19.9717C4.48686 20.4498 4.60799 21.0513 4.67966 21.2552L5.07333 22.3991H0C0 22.3991 2.59016 20.7954 2.59016 17.0162C2.59016 13.2369 0 11.6343 0 11.6343H5.6709C8.06928 11.6343 11.2136 12.7751 11.2136 17.0162Z" fill="#FFA71A"/>
<path d="M5.00065 9.49348H0C0 9.49348 2.28431 8.07843 2.28431 4.74674C2.28431 1.41505 0 0 0 0H5.00065C7.11639 0 9.88925 1.00624 9.88925 4.74674C9.88925 8.48724 7.11639 9.49348 5.00065 9.49348Z" fill="#FFA71A"/>
<path d="M17.2691 9.49348H12.2685C12.2685 9.49348 14.5528 8.07843 14.5528 4.74674C14.5528 1.41505 12.2685 0 12.2685 0H17.2691C19.3849 0 22.1577 1.00624 22.1577 4.74674C22.1577 8.48724 19.3849 9.49348 17.2691 9.49348Z" fill="#FFA71A"/>
<path d="M12.6309 22.1646C12.6914 22.2543 12.7459 22.3317 12.7944 22.399H12.3735C12.426 22.345 12.5077 22.2685 12.6309 22.1646Z" fill="#FFA71A"/>
<path d="M22.1345 13.2553C21.9942 13.3205 21.8711 13.3745 21.7631 13.4174L21.4451 13.5417C21.3088 13.5958 21.1928 13.6906 21.112 13.8139C21.109 13.818 21.107 13.8221 21.1039 13.8262L20.7779 13.9852L19.936 14.29C19.8987 14.3033 19.8623 14.3206 19.828 14.34C19.3203 14.6285 19.2002 15.0608 19.2557 15.4105L19.2527 15.4441C19.0922 15.1495 18.7227 14.7804 17.8849 14.7804C17.8627 14.7804 17.8415 14.7814 17.8193 14.7814C17.7355 14.7835 17.6537 14.7998 17.577 14.8304L17.4397 14.8844C17.2157 14.9721 16.828 15.2198 16.7554 15.8866C16.7412 16.0109 16.7604 16.1353 16.8078 16.2475C16.829 17.0508 16.7806 18.0275 16.6645 19.1612C16.6231 19.1724 16.5827 19.1867 16.5434 19.205L16.2648 19.3365C16.3799 17.5657 16.4212 17.1935 16.4344 17.1171C16.4566 16.9886 16.4434 16.8541 16.397 16.7317C16.2809 16.433 15.9418 15.9304 14.9636 15.9304C14.9424 15.9304 14.9202 15.9304 14.898 15.9314C14.8415 15.9324 14.785 15.9406 14.7305 15.9559C14.3136 12.9362 12.212 11.6343 12.212 11.6343H17.8829C19.3092 11.6343 20.9979 12.037 22.1345 13.2553Z" fill="#FFA71A"/>
<path d="M23.0622 18.8991C23.0935 18.9226 23.1258 18.944 23.1601 18.9623C22.3526 21.6212 19.8644 22.399 17.8829 22.399H15.7469C16.1507 22.0993 16.4858 21.8607 16.7493 21.6895C16.8876 21.611 17.0148 21.5386 17.1309 21.4713C17.4145 21.613 17.6224 21.6732 17.8183 21.6732C17.9263 21.6732 18.0302 21.6538 18.1261 21.6161L18.1494 21.6069C18.2089 21.5834 18.2654 21.5518 18.3169 21.5121C18.8792 21.0859 19.3344 20.7587 19.6695 20.5395C19.6766 20.5354 19.6837 20.5313 19.6907 20.5283L19.6968 20.5303C19.7765 20.5599 19.8593 20.5741 19.9421 20.5741C20.0117 20.5741 20.0814 20.5639 20.149 20.5436C20.1874 20.5497 20.2257 20.5527 20.2641 20.5527C20.3378 20.5527 20.4105 20.5415 20.4801 20.5191C20.5154 20.5252 20.5528 20.5272 20.5891 20.5272C20.6759 20.5272 20.7627 20.5109 20.8455 20.4793L20.8687 20.4702C20.9697 20.4304 21.0605 20.3672 21.1332 20.2866C21.2947 20.1082 21.3775 19.9329 21.4148 19.7769C21.5279 19.6862 21.7701 19.5108 22.2738 19.207C22.2759 19.206 22.2779 19.205 22.2799 19.2029C22.5423 19.0408 22.7533 18.9052 22.9239 18.79C22.9289 18.7951 22.934 18.7982 22.939 18.8023L23.0622 18.8991V18.8991Z" fill="#FFA71A"/>
<path d="M13.9061 19.4304L13.8619 19.4478L13.8792 19.4924L13.9234 19.475L13.9061 19.4304Z" fill="white"/>
<path d="M26.1379 13.0839C26.1227 13.0441 26.0803 13.0319 26.0117 13.0492C25.9612 12.9187 25.8865 12.8728 25.7886 12.9116L25.7785 12.8851L25.7957 12.8514L25.7856 12.8249L25.6544 12.8494L25.6352 12.7994L25.6493 12.7668L25.616 12.7495L25.6624 12.7311L25.6432 12.6812L25.5474 12.7189L25.5383 12.6954L25.8048 12.5904L25.7947 12.5639C25.7775 12.5201 25.728 12.5119 25.6443 12.5384L25.6614 12.5048C25.5877 12.4375 25.506 12.4212 25.4161 12.4569L24.9528 12.6394L24.4804 12.7984C23.3509 13.4519 22.5302 13.8791 22.0194 14.0809L21.7015 14.2063C21.6651 14.2624 21.6389 14.3144 21.6227 14.3643L21.0514 14.6427L20.1752 14.9607C19.9794 15.0719 19.9108 15.2024 19.9683 15.3522C19.8643 16.8172 19.7997 17.9326 19.7745 18.6982L19.7634 18.7013L18.3704 19.3578L18.4279 18.9582C18.544 17.0915 18.6217 16.0516 18.6591 15.8395C18.5662 15.5989 18.2907 15.4837 17.8334 15.4929L17.6961 15.547C17.5619 15.6 17.4821 15.7386 17.4569 15.9629L17.5074 16.0241C17.5497 17.0425 17.4791 18.321 17.2974 19.8604L17.2883 19.837L17.151 19.891L17.1238 19.8207L17.1914 19.7941L17.1732 19.7472L17.036 19.8013L16.8432 19.8502L15.4502 20.5068L15.5077 20.1071C15.6238 18.2404 15.7015 17.2006 15.7389 16.9885C15.646 16.7479 15.3704 16.6327 14.9132 16.6419L14.7759 16.6959C14.6416 16.7489 14.5619 16.8876 14.5366 17.1119L14.5871 17.173C14.6154 17.8602 14.5922 18.6676 14.5185 19.5923C14.4912 19.6015 14.464 19.6106 14.4347 19.6219L14.3327 19.6891C14.3216 19.6596 14.2601 19.6494 14.148 19.6596L14.0481 19.7258L14.0309 19.681C14.1137 19.6484 14.2177 19.5729 14.3438 19.4557L14.3267 19.4108L14.1833 19.4944L14.0309 19.5546L14.0218 19.5311L14.1571 19.4261L14.1409 19.3843L13.8018 19.5413L13.7786 19.5505L13.7614 19.5056L13.0992 19.8686C13.0649 19.8818 13.0235 19.839 12.9751 19.7401L12.9428 19.7258C12.6127 19.0989 12.3785 18.6849 12.2402 18.4841C12.0504 18.271 11.7486 18.2476 11.3317 18.4107C11.2782 18.4321 11.2237 18.4861 11.1682 18.5748L11.1884 19.0754L10.9562 20.6852C10.7947 21.2571 10.6887 21.6965 10.6363 22.0044C10.4334 22.5203 10.3637 22.8597 10.4273 23.0239L10.4869 23.1778C10.498 23.2074 10.5333 23.2105 10.5918 23.188C10.6807 23.2533 10.7554 23.2747 10.8159 23.2502L10.8331 23.2951L10.8775 23.2777L10.8906 23.2482C10.9159 23.3124 10.9825 23.3542 11.0905 23.3715L11.1117 23.3634L11.1248 23.3338L11.2116 23.4266C11.2722 23.4031 11.3297 23.3124 11.3842 23.1544C11.5134 22.6232 11.6002 22.3286 11.6447 22.2684C11.5891 22.1257 11.9697 21.7465 12.7863 21.1317L12.8075 21.1236C13.2416 21.8148 13.5171 22.2042 13.6352 22.295L13.8785 22.401L14.0612 22.2266L14.1732 22.2613L14.2237 22.1899L14.2409 22.2348L14.2853 22.2175L14.259 22.1492C14.3287 22.1736 14.3872 22.1767 14.4357 22.1583L14.4589 22.1492L14.4973 22.0554L14.464 21.9687C14.4599 21.9585 14.4559 21.9483 14.4518 21.9381C14.7082 22.0727 14.8758 22.1267 14.9515 22.0962L14.9747 22.087C15.5642 21.6404 16.0346 21.302 16.3879 21.0726C16.7442 20.8717 17.0228 20.7096 17.2288 20.5842L17.2641 20.676L17.2964 20.6903L17.2812 20.7209L17.2903 20.7443C17.5942 20.9125 17.788 20.9788 17.8718 20.9462L17.895 20.937C18.4845 20.4905 18.9549 20.152 19.3082 19.9226C19.4818 19.8247 19.6362 19.736 19.7735 19.6565C19.7755 19.6973 19.7785 19.734 19.7816 19.7666L19.7896 19.788L19.8219 19.8023L19.8431 19.7941L19.8573 19.7615L19.9017 19.7442L19.9047 19.8217L19.9138 19.8451L19.9451 19.8574L20.0046 19.8105C20.1651 19.789 20.253 19.7982 20.2681 19.8359L20.3701 19.7687L20.4165 19.7503L20.5921 19.8105L20.6153 19.8013C20.7062 19.7014 20.7466 19.6076 20.7375 19.5219C20.6921 19.4037 21.0837 19.0938 21.9145 18.5922C22.619 18.1558 23.0208 17.8694 23.1187 17.7327C23.1056 17.6981 23.0591 17.6899 22.9814 17.7083L22.9935 17.6767C22.9471 17.6084 22.8149 17.6175 22.5958 17.7042L22.611 17.6746L22.6019 17.6512L22.5706 17.6389L22.6816 17.5951L22.6635 17.5482L22.5292 17.6012L22.5211 17.5798L22.5676 17.5615C22.5877 17.5013 22.616 17.4636 22.6523 17.4493L22.6261 17.381C22.5706 17.4024 22.5191 17.38 22.4717 17.3127L22.3697 17.38L22.3465 17.3892L22.3293 17.3443L20.8334 18.2435C20.8415 17.7225 20.903 17.4391 21.0181 17.3932C21.8771 16.8325 22.298 16.5287 22.2809 16.4839L22.2728 16.4625C22.2607 16.4309 22.2173 16.4298 22.1436 16.4594L22.1355 16.438L22.1476 16.4064L22.1396 16.385C22.0043 16.385 21.9225 16.3493 21.8943 16.2739L21.8892 16.1974L21.8448 16.2147L21.8367 16.1933L21.9296 16.1026C21.9185 16.073 21.8529 16.0812 21.7338 16.1281L21.7257 16.1067L21.7842 16.0567L21.7136 16.0057C21.3401 16.1709 21.119 16.284 21.0514 16.3452L21.0282 16.3544L21.0837 15.7631C21.5097 15.3634 21.8155 15.1239 22.0043 15.0403C22.2042 15.1748 22.4343 15.1912 22.6978 15.0882L23.5477 14.5846L23.5315 15.13C23.3004 16.8652 23.2489 17.8989 23.3771 18.2302L23.5003 18.3261C23.7001 18.3699 23.8101 18.4117 23.8293 18.4525L23.8525 18.4433L23.8687 18.4066C23.9 18.4882 23.9646 18.5106 24.0615 18.4729L24.1978 18.533C24.2614 18.5075 24.3239 18.426 24.3835 18.2884C24.3724 17.7582 24.4693 16.4788 24.6762 14.45C24.6288 14.1095 24.6651 13.9148 24.7883 13.8668L26.1641 13.1267L26.1449 13.0767L26.1379 13.0839ZM11.9899 20.6383L11.9818 20.6169C12.0333 20.2611 12.0757 20.0663 12.109 20.0337L12.3099 20.361C12.319 20.3834 12.212 20.4762 11.9899 20.6373V20.6383ZM13.9885 19.5739L13.9966 19.5953L13.9522 19.6127L13.9441 19.5913L13.9885 19.5739ZM14.2409 21.5436C14.0895 21.2877 13.8745 20.9625 13.5928 20.5649L13.9582 20.3457C14.1571 20.2386 14.3297 20.1408 14.4791 20.049C14.4438 20.4262 14.4004 20.8228 14.3499 21.2367C14.2732 21.3662 14.2379 21.4681 14.2409 21.5436ZM17.2923 19.9012C17.2853 19.9634 17.2782 20.0245 17.2701 20.0867C17.2459 20.1275 17.2257 20.1652 17.2106 20.1999L17.1207 20.0918L17.2934 19.9012H17.2923Z" fill="white"/>
<path d="M10.6968 18.4748L10.6877 18.4513L10.609 18.4554L10.5858 18.4646L10.5717 18.4972L10.5666 18.4146C10.5545 18.383 10.4303 18.3871 10.1951 18.4259L10.1992 18.5054L10.176 18.5145C10.1578 18.4677 10.1134 18.4483 10.0437 18.4585L9.98316 18.5094L9.97408 18.486L9.94177 18.4717C9.82367 18.5829 9.78128 18.6817 9.81459 18.7684C9.74898 19.1558 9.72879 19.3801 9.75301 19.4433C9.70052 19.5085 9.61977 19.8582 9.51075 20.4934L9.51984 20.5168L9.55214 20.5311C9.48956 20.5556 9.46432 20.629 9.47542 20.7513C9.30887 21.313 9.18067 21.8442 9.09185 22.3458L9.06863 22.355L8.95356 22.1266L8.96769 22.094L8.80416 21.6709L8.74057 21.3671L8.75268 20.6269C8.74057 20.5953 8.7113 20.5892 8.66486 20.6076L8.52354 20.528L8.40746 20.5739L8.39333 20.6065L8.36103 20.5923L8.33781 20.6014L8.28633 20.6759L8.26312 20.685L8.13795 20.7075L8.15208 20.6748L8.14299 20.6514L8.11069 20.6371L7.95625 20.7248L7.88357 20.7533L7.71096 20.7941L7.6827 20.8594L7.56056 20.9613C7.66554 21.3559 7.69885 21.5608 7.66352 21.5751L7.14569 23.0319L7.09926 22.9116L7.08614 22.8086L7.02658 22.724L6.99024 22.6302L6.96803 22.5038L6.93573 22.4895L6.91353 22.3631L6.83479 22.2285L6.7076 21.8993L6.45727 20.9644L6.39267 20.7972L6.2887 20.6748C6.09287 20.5739 5.88493 20.5464 5.6669 20.5943C5.40142 20.7472 5.29442 20.8889 5.34489 21.0194L5.78197 22.2907C6.05754 23.0054 6.25236 23.4642 6.36642 23.666C6.74798 24.3878 6.9963 24.7253 7.11036 24.6804C7.20424 24.7334 7.26581 24.7548 7.29508 24.7426L7.3183 24.7334L7.33243 24.7008C7.44246 24.7294 7.54845 24.7243 7.64838 24.6845C7.8644 24.5999 7.97038 24.3848 7.96635 24.0412C7.99158 23.6477 8.07536 23.2613 8.21971 22.881C8.43875 23.4479 8.69313 23.7833 8.98384 23.8873C9.01715 23.9739 9.24629 23.9841 9.66923 23.9158C9.76412 23.8781 9.85597 23.7884 9.94379 23.6456L9.97509 23.1695L10.3466 20.7095C10.6241 19.3373 10.7402 18.593 10.6958 18.4789L10.6968 18.4748ZM9.71264 20.1121L9.68538 20.0417L9.7086 20.0326L9.73585 20.1029L9.71264 20.1121ZM9.77623 19.7889L9.76715 19.7655L9.79541 19.7002L9.80449 19.7237L9.77623 19.7889Z" fill="white"/>
</svg>
