<svg width="27" height="27" viewBox="0 0 27 27" fill="none" xmlns="http://www.w3.org/2000/svg">
<path d="M5.43127 10.8626H7.6038C9.77632 10.8626 10.8626 9.77638 10.8626 7.60386V5.43133C10.8626 3.25881 9.77632 2.17255 7.6038 2.17255H5.43127C3.25875 2.17255 2.17249 3.25881 2.17249 5.43133V7.60386C2.17249 9.77638 3.25875 10.8626 5.43127 10.8626ZM18.4664 10.8626H20.6389C22.8115 10.8626 23.8977 9.77638 23.8977 7.60386V5.43133C23.8977 3.25881 22.8115 2.17255 20.6389 2.17255H18.4664C16.2939 2.17255 15.2076 3.25881 15.2076 5.43133V7.60386C15.2076 9.77638 16.2939 10.8626 18.4664 10.8626ZM18.4664 23.8978H20.6389C22.8115 23.8978 23.8977 22.8115 23.8977 20.639V18.4665C23.8977 16.294 22.8115 15.2077 20.6389 15.2077H18.4664C16.2939 15.2077 15.2076 16.294 15.2076 18.4665V20.639C15.2076 22.8115 16.2939 23.8978 18.4664 23.8978ZM5.43127 23.8978H7.6038C9.77632 23.8978 10.8626 22.8115 10.8626 20.639V18.4665C10.8626 16.294 9.77632 15.2077 7.6038 15.2077H5.43127C3.25875 15.2077 2.17249 16.294 2.17249 18.4665V20.639C2.17249 22.8115 3.25875 23.8978 5.43127 23.8978Z" stroke="white" stroke-width="2.08562" stroke-miterlimit="10" stroke-linecap="round" stroke-linejoin="round"/>
</svg>
