<svg width="23" height="24" viewBox="0 0 23 24" fill="none" xmlns="http://www.w3.org/2000/svg">
<g clip-path="url(#clip0_100_930)">
<path d="M0 19.639H22.8115M0 22.6805H22.8115M3.80192 6.71247V4.43132H6.08307M16.7284 4.43132H19.0096V6.71247M3.80192 11.2748V13.5559H6.08307M16.7284 13.5559H19.0096V11.2748M11.4058 12.0352C10.5991 12.0352 9.82546 11.7147 9.25506 11.1443C8.68466 10.5739 8.36422 9.80028 8.36422 8.99362C8.36422 8.18695 8.68466 7.41333 9.25506 6.84293C9.82546 6.27253 10.5991 5.95209 11.4058 5.95209C12.2124 5.95209 12.986 6.27253 13.5564 6.84293C14.1268 7.41333 14.4473 8.18695 14.4473 8.99362C14.4473 9.80028 14.1268 10.5739 13.5564 11.1443C12.986 11.7147 12.2124 12.0352 11.4058 12.0352ZM2.28115 1.38979H20.5304C20.9337 1.38979 21.3205 1.55001 21.6057 1.83521C21.8909 2.12041 22.0511 2.50722 22.0511 2.91055V15.0767C22.0511 15.48 21.8909 15.8668 21.6057 16.152C21.3205 16.4372 20.9337 16.5975 20.5304 16.5975H2.28115C1.87782 16.5975 1.491 16.4372 1.20581 16.152C0.920607 15.8668 0.760383 15.48 0.760383 15.0767V2.91055C0.760383 2.50722 0.920607 2.12041 1.20581 1.83521C1.491 1.55001 1.87782 1.38979 2.28115 1.38979Z" stroke="white" stroke-width="1.82492"/>
</g>
<defs>
<clipPath id="clip0_100_930">
<rect width="22.8115" height="22.8115" fill="white" transform="translate(0 0.629395)"/>
</clipPath>
</defs>
</svg>
